<?xml version="1.0" encoding="UTF-8"?><svg id="PRINT" xmlns="http://www.w3.org/2000/svg" viewBox="0 0 371.21 239.66"><defs><style>.cls-1,.cls-2{stroke-width:0px;}.cls-1,.cls-3{fill:#881e09;}.cls-4{letter-spacing:0em;}.cls-2,.cls-5{fill:#df8221;}.cls-5{font-family:Poppins-SemiBold, Poppins;font-size:23.83px;font-weight:600;}.cls-3{font-family:OleoScript-Regular, 'Oleo Script';font-size:93.62px;}</style></defs><g id="CUSTOM-group"><path class="cls-2" d="M141.53,114.56l32.85-31.66-22.4-33.45-3.58-21.5,80.64,80.94s24.79-14.34,15.53-62.42C235.31-1.62,174.38-3.41,149.3,14.81c-25.09,18.22-44.8,49.88-7.77,99.75Z"/><path class="cls-1" d="M165,86.62l-17.98,17.98c-1.34,1.34-1.34,3.51,0,4.84.67.67,1.54,1,2.42,1s1.75-.33,2.42-1l17.98-17.98c1.34-1.34,1.34-3.5,0-4.84-1.34-1.34-3.51-1.34-4.84,0Z"/><path class="cls-1" d="M231.59,105.96l-37.91-38.22,5.43-5.43c4.81,2.9,11.03,3.27,13.9,3.27.73,0,1.24-.02,1.46-.04.98-.06,1.89-.53,2.5-1.3l14.83-18.89c1.17-1.49.91-3.64-.58-4.81-1.49-1.17-3.64-.91-4.81.58l-13.82,17.61c-2.2-.05-5.62-.39-8.39-1.51l19.62-19.61c1.34-1.34,1.34-3.5,0-4.84-1.34-1.34-3.5-1.34-4.84,0l-19.63,19.62c-1.12-2.74-1.47-6.15-1.51-8.38l17.94-13.81c1.5-1.15,1.78-3.3.63-4.8-1.15-1.5-3.3-1.78-4.8-.63l-19.25,14.81c-.79.61-1.27,1.52-1.33,2.52-.06,1.06-.4,9.34,3.24,15.37l-5.4,5.4-37.5-37.8c-.64-.65-1.51-1.01-2.42-1.01h0c-.91,0-1.78.36-2.42,1l-.51.51c-.57.57-.92,1.31-.99,2.11-.09,1.04-.14,2.11-.13,3.18.07,11.37,5.72,24.69,16.79,39.6,8.09,10.9,16.05,18.49,16.38,18.8.73.7,1.74,1.03,2.74.92l6.76-.76c1.88-.21,3.23-1.91,3.02-3.79-.21-1.88-1.91-3.23-3.79-3.02l-5.13.58c-5.14-5.16-26.33-27.49-29.52-47.63l74.61,75.2c.67.67,1.55,1.01,2.43,1.01s1.74-.33,2.41-.99c1.34-1.33,1.35-3.5.02-4.84Z"/><path class="cls-1" d="M142.12,116.04c-.73,0-1.47-.26-2.05-.79-13.85-12.53-21.8-30.42-21.8-49.09C118.27,29.68,147.95,0,184.43,0s66.16,29.68,66.16,66.16c0,15.75-6.72,31.67-18.91,44.83-1.15,1.24-3.09,1.31-4.33.16-1.24-1.15-1.31-3.09-.16-4.33,11.14-12.02,17.28-26.46,17.28-40.66,0-33.1-26.93-60.03-60.03-60.03s-60.03,26.93-60.03,60.03c0,16.94,7.21,33.17,19.78,44.54,1.26,1.13,1.35,3.07.22,4.33-.6.67-1.44,1.01-2.27,1.01Z"/></g><g id="CUSTOM-group-2"><path class="cls-2" d="M172.63,226.19h-36.98c-1.38,0-2.5-1.15-2.5-2.57s1.12-2.57,2.5-2.57h36.98c1.38,0,2.5,1.15,2.5,2.57s-1.12,2.57-2.5,2.57Z"/><path class="cls-2" d="M172.63,209.97H2.5c-1.38,0-2.5-1.15-2.5-2.57s1.12-2.57,2.5-2.57h170.13c1.38,0,2.5,1.15,2.5,2.57s-1.12,2.57-2.5,2.57Z"/></g><text class="cls-3" transform="translate(39.58 190.92) rotate(-.11)"><tspan x="0" y="0">Cheff</tspan><tspan class="cls-4" x="189.38" y="0">e</tspan><tspan x="227.67" y="0">st</tspan></text><text class="cls-5" transform="translate(182.03 225.53)"><tspan x="0" y="0">Fast food &amp; Grill</tspan></text></svg>