<?xml version="1.0" encoding="utf-8"?>
<!-- Generator: Adobe Illustrator 28.2.0, SVG Export Plug-In . SVG Version: 6.00 Build 0)  -->
<svg version="1.1" id="PRINT" xmlns="http://www.w3.org/2000/svg" xmlns:xlink="http://www.w3.org/1999/xlink" x="0px" y="0px"
	 viewBox="0 0 445.5 116" style="enable-background:new 0 0 445.5 116;" xml:space="preserve">
<style type="text/css">
	.st0{fill:#DF8221;}
	.st1{fill:#881E09;}
	.st2{enable-background:new    ;}
</style>
<g id="CUSTOM-group">
	<path class="st0" d="M27,114.6l32.9-31.7L37.4,49.4l-3.6-21.5l80.6,80.9c0,0,24.8-14.3,15.5-62.4c-9.1-48-70.1-49.8-95.1-31.6
		C9.7,33-10,64.7,27,114.6z"/>
	<path class="st1" d="M50.5,86.6l-18,18c-1.3,1.3-1.3,3.5,0,4.8c0.7,0.7,1.5,1,2.4,1s1.8-0.3,2.4-1l18-18c1.3-1.3,1.3-3.5,0-4.8
		S51.8,85.3,50.5,86.6z"/>
	<path class="st1" d="M117,106L79.1,67.7l5.4-5.4c4.8,2.9,11,3.3,13.9,3.3c0.7,0,1.2,0,1.5,0c1-0.1,1.9-0.5,2.5-1.3l14.8-18.9
		c1.2-1.5,0.9-3.6-0.6-4.8s-3.6-0.9-4.8,0.6L98,58.7c-2.2,0-5.6-0.4-8.4-1.5l19.6-19.6c1.3-1.3,1.3-3.5,0-4.8s-3.5-1.3-4.8,0
		L84.8,52.4c-1.1-2.7-1.5-6.2-1.5-8.4l17.9-13.8c1.5-1.1,1.8-3.3,0.6-4.8s-3.3-1.8-4.8-0.6L77.8,39.6c-0.8,0.6-1.3,1.5-1.3,2.5
		c-0.1,1.1-0.4,9.3,3.2,15.4l-5.4,5.4L36.8,25.1c-0.6-0.6-1.5-1-2.4-1l0,0c-0.9,0-1.8,0.4-2.4,1l-0.5,0.5c-0.6,0.6-0.9,1.3-1,2.1
		c-0.1,1-0.1,2.1-0.1,3.2c0.1,11.4,5.7,24.7,16.8,39.6C55.3,81.4,63.3,89,63.6,89.3c0.7,0.7,1.7,1,2.7,0.9l6.8-0.8
		c1.9-0.2,3.2-1.9,3-3.8s-1.9-3.2-3.8-3l-5.1,0.6C62,78,40.8,55.7,37.6,35.6l74.6,75.2c0.7,0.7,1.6,1,2.4,1s1.7-0.3,2.4-1
		C118.4,109.4,118.4,107.3,117,106L117,106z"/>
	<path class="st1" d="M27.6,116c-0.7,0-1.5-0.3-2.1-0.8c-13.8-12.5-21.8-30.4-21.8-49C3.7,29.7,33.4,0,69.9,0S136,29.7,136,66.2
		c0,15.8-6.7,31.7-18.9,44.8c-1.1,1.2-3.1,1.3-4.3,0.2c-1.2-1.2-1.3-3.1-0.2-4.3c11.1-12,17.3-26.5,17.3-40.7c0-33.1-26.9-60-60-60
		s-60,26.9-60,60c0,16.9,7.2,33.2,19.8,44.5c1.3,1.1,1.4,3.1,0.2,4.3C29.3,115.7,28.4,116,27.6,116L27.6,116z"/>
</g>
<path class="st0" d="M372.6,102.1h-37c-1.4,0-2.5-1.1-2.5-2.6s1.1-2.6,2.5-2.6h37c1.4,0,2.5,1.1,2.5,2.6S374,102.1,372.6,102.1z"/>
<path class="st0" d="M277.7,102H146c-1.1,0-1.9-0.9-1.9-2s0.9-2,1.9-2h131.7c1.1,0,1.9,0.9,1.9,2C279.6,101.1,278.8,102,277.7,102z"
	/>
<g>
	<g class="st2">
		<path class="st1" d="M173.9,86.6c-5.8,0-10.6-2.3-14.4-7c-3.8-4.7-5.7-10.9-5.7-18.5c0-7.6,1.3-14.6,3.9-20.8
			c2.6-6.3,6.3-11.4,11.2-15.3c4.9-3.9,10.1-5.9,15.6-5.9s10,1.2,13.4,3.7c3.4,2.5,5.1,5.5,5.1,8.9c0,3.5-1,6.4-3.1,8.9
			c-2,0-4.2-0.4-6.7-1.3c-2.5-0.9-4.4-1.9-5.6-3.2l1.8-9.5c-1.5-0.9-3.5-1.4-5.9-1.4c-3.8,0-7.2,3.3-10.1,9.8
			c-2.9,6.5-4.4,14.6-4.4,24.1c0,6.3,1.1,10.9,3.2,13.7c2.1,2.8,4.6,4.3,7.6,4.2c4.9,0,9.7-2.3,14.2-7l3.8,3.5
			c-0.7,1-1.9,2.4-3.7,4.1c-1.8,1.8-3.6,3.2-5.3,4.4c-1.7,1.2-4,2.2-6.6,3.1C179.3,86.1,176.6,86.6,173.9,86.6z"/>
		<path class="st1" d="M213.4,23.6c0-2.1-0.2-3.5-0.6-4.4c4.9-1.7,9.5-2.5,13.8-2.6c0.6,0.6,0.8,2,0.9,4.3c0,4.1-1.7,13.6-5.2,28.5
			c5-3.7,9.5-5.5,13.3-5.5c2.4,0,4.2,0.7,5.4,2.2c1.2,1.5,1.8,3.5,1.8,5.9c0,2.5-0.7,6.5-2.1,12.1c-1.4,5.6-2.1,9.4-2.1,11.5
			s0.3,3.1,0.8,3.1c0.5,0,1.8-0.6,3.9-1.7l1.1-0.6l1.7,3.3c-0.6,0.5-1.3,1.1-2.2,1.9s-2.7,1.8-5.1,3c-2.5,1.3-4.8,1.9-6.9,1.9
			c-2.1,0-3.8-0.7-5-2c-1.3-1.3-1.9-3.1-1.9-5.4c0-2.3,0.7-6.4,2.1-12.5c1.4-6,2.1-9.8,2.1-11.4c0-1.6-0.7-2.4-2-2.4
			c-1.6,0-3.6,0.7-6.1,2.1c-3.4,15.1-5.1,24.9-5.1,29.4c-2.6,1-7.1,1.5-13.4,1.5c-0.1-1.1-0.1-2-0.1-2.8c0-2.7,1.8-11.9,5.5-27.5
			C211.5,39.8,213.4,29.2,213.4,23.6z"/>
		<path class="st1" d="M248.6,69.1c0-7.8,2.3-14,7-18.5c4.7-4.5,10.1-6.8,16-6.8c3.7,0,6.7,0.9,9.1,2.7c2.4,1.8,3.6,4.2,3.6,7.2
			c0,3-0.8,5.6-2.3,7.6c-1.5,2.1-3.4,3.7-5.6,4.8c-4.4,2.2-8.5,3.6-12.2,4.1l-2.2,0.3c0.4,5.9,2.9,8.8,7.2,8.8
			c1.5,0,3.1-0.4,4.8-1.1c1.7-0.8,3-1.5,3.9-2.3l1.4-1.1l2.3,3c-0.5,0.7-1.5,1.6-3,2.7c-1.5,1.1-2.9,2.1-4.2,2.8
			c-3.6,2-7.6,3-11.9,3c-4.3,0-7.7-1.5-10.2-4.6C249.8,78.8,248.6,74.6,248.6,69.1z M269.5,62c1.9-2.1,2.8-4.9,2.8-8.2
			c0-3.4-1-5.1-3-5c-2.4,0-4.2,2-5.5,6c-1.3,4-1.9,7.8-1.9,11.3C265.1,65.4,267.6,64.1,269.5,62z"/>
		<path class="st1" d="M313.6,44.9c-0.1,1.4-0.7,3.2-1.7,5.4c-2.4-0.2-4.7-0.4-7-0.4l-0.4,0c-1.3,15.4-2.5,26.8-3.6,34.2
			c-1.1,7.4-2.6,12.5-4.4,15.5c-2.2-0.1-4.6-0.4-7-0.9c-2.4-0.5-4-1.1-4.9-1.6c1.5-4.6,3-11.6,4.5-20.9c1.5-9.3,2.5-17.9,2.9-25.8
			c-1.7,0.1-3.7,0.4-5.8,0.7c-0.2-0.8-0.3-1.6-0.3-2.5s0.1-2.1,0.4-3.7l6,0c0.1-5.4,0.4-9.5,0.8-12.4c0.7-5,2.5-8.9,5.2-11.8
			c2.7-2.8,6.2-4.3,10.5-4.3c2.7,0,4.9,0.6,6.5,1.8c1.6,1.2,2.4,3.1,2.4,5.8s-1.2,6-3.5,10.2c-2.4,4.2-5.5,7.7-9.3,10.6L313.6,44.9z
			 M310.7,32.1c1.4-2.5,2.1-4.8,2-6.8c0-2-0.7-3-2-3c-2.7,0-4.5,3.2-5.2,9.5c-0.2,2.1-0.4,4.5-0.5,7.2
			C307.5,36.9,309.4,34.6,310.7,32.1z"/>
		<path class="st1" d="M341,44.8c-0.1,1.4-0.7,3.2-1.7,5.4c-2.4-0.2-4.7-0.4-7-0.4l-0.4,0c-1.3,15.4-2.5,26.8-3.6,34.2
			s-2.6,12.5-4.4,15.5c-2.2-0.1-4.6-0.4-7-0.9c-2.4-0.5-4-1.1-4.9-1.6c1.5-4.6,3-11.6,4.5-20.9c1.5-9.3,2.5-17.9,2.9-25.8
			c-1.7,0.1-3.7,0.4-5.8,0.7c-0.2-0.8-0.3-1.6-0.3-2.5s0.1-2.1,0.4-3.7l6,0c0.1-5.4,0.4-9.5,0.8-12.4c0.7-5,2.5-8.9,5.2-11.8
			c2.7-2.8,6.2-4.3,10.5-4.3c2.7,0,4.9,0.6,6.5,1.8c1.6,1.2,2.4,3.1,2.4,5.8s-1.2,6-3.5,10.2c-2.4,4.2-5.5,7.7-9.3,10.6L341,44.8z
			 M338.2,32.1c1.4-2.5,2-4.8,2-6.8c0-2-0.7-3-2-3c-2.7,0-4.5,3.2-5.2,9.5c-0.2,2.1-0.4,4.5-0.5,7.2
			C334.9,36.9,336.8,34.6,338.2,32.1z"/>
	</g>
	<g class="st2">
		<path class="st1" d="M340.8,69c0-7.8,2.3-14,7-18.5c4.7-4.5,10.1-6.8,16-6.8c3.7,0,6.7,0.9,9.1,2.7c2.4,1.8,3.6,4.2,3.6,7.2
			c0,3-0.8,5.6-2.3,7.6s-3.4,3.7-5.6,4.8c-4.4,2.2-8.5,3.6-12.2,4.1l-2.2,0.3c0.4,5.9,2.9,8.8,7.2,8.8c1.5,0,3.1-0.4,4.8-1.1
			s3-1.5,3.9-2.3l1.4-1.1l2.3,3c-0.5,0.7-1.5,1.6-3,2.7c-1.5,1.1-2.9,2.1-4.2,2.8c-3.6,2-7.6,3-11.9,3c-4.3,0-7.7-1.5-10.2-4.6
			C342,78.6,340.8,74.4,340.8,69z M361.7,61.8c1.9-2.1,2.8-4.9,2.8-8.2s-1-5.1-3-5c-2.4,0-4.2,2-5.5,6c-1.3,4-1.9,7.8-1.9,11.3
			C357.3,65.3,359.9,63.9,361.7,61.8z"/>
	</g>
	<g class="st2">
		<path class="st1" d="M408.4,72.8c0,3.9-1.7,7.2-5.2,9.7c-3.5,2.5-7.4,3.8-11.8,3.8c-4.4,0-7.9-0.9-10.5-2.8
			c-2.6-1.9-3.9-3.5-3.9-5c0-0.9,1.1-2.3,3.3-4.3c2.2-2,4-3.2,5.5-3.6c3.1,2.3,5.7,5.9,7.7,10.9c2.3-0.2,3.5-1.3,3.5-3.3
			c0-2.9-2.5-6.9-7.6-12.2c-5.1-5.3-7.6-9.5-7.6-12.6c0-3.1,1.4-5.5,4.2-7.3c2.8-1.7,6.2-2.6,10.2-2.6c4,0,6.9,0.7,8.9,2.1
			c2,1.4,3,3.3,3,5.7c0,2.4-1.9,5.7-5.7,10c0.4,0.4,1,1,1.7,1.7c0.7,0.7,1.6,2.1,2.7,4.1C407.8,69.1,408.4,71,408.4,72.8z
			 M403.3,51.4c0-2.2-1.5-3.3-4.5-3.3c-1.4,0-2.6,0.3-3.6,0.9c-0.9,0.6-1.4,1.3-1.4,2c0,1.4,1.4,3.3,4.1,5.8l1.4,1.2
			C402,55.8,403.3,53.6,403.3,51.4z"/>
		<path class="st1" d="M441.9,44.6c-0.1,1.6-0.6,3.4-1.6,5.4c-2.4-0.2-4.6-0.4-6.7-0.4l-1.7,0c-2.8,13.9-4.3,22.6-4.3,26
			c0,1.8,0.4,2.7,1.2,2.7c0.8,0,2.9-0.8,6.2-2.4l1.7,3.1c-5.5,4.6-10.7,6.9-15.4,7c-2.2,0-4-0.7-5.4-2c-1.4-1.4-2.1-3.2-2.1-5.5
			c0-2.3,0.3-4.9,0.8-7.7c0.5-2.9,1.3-6.4,2.2-10.5c0.9-4.2,1.6-7.5,2-10.1c-2.3,0.2-4,0.4-5.1,0.6c-0.1-0.7-0.2-1.8-0.2-3
			c0-1.3,0.1-2.3,0.3-3.1l5.9,0c0.5-3.4,0.7-6.6,0.7-9.5l-0.1-2.9v-0.3c4.9-1.7,9.5-2.5,13.8-2.6c0.3,1.2,0.4,2.8,0.4,4.7
			c0,1.9-0.5,5.4-1.6,10.6L441.9,44.6z"/>
	</g>
</g>
</svg>
